#!OML:ASF X:\für Bonn\!DataBase\2005_08_12_Daniel\c3d\Daniel.ASF
:FULLY-SPECIFIED
:DEGREES
18
root -3.53254 16.6756 -8.02843 -1612.13 117.951 198.429
lowerback 23.8853 -2.02402 -7.04912
upperback 7.64678 -4.12461 -5.69505
thorax -4.75386 -1.78166 -1.07345
lowerneck 8.44519 4.09893 -5.70195
upperneck 15.4437 5.34354 2.11419
head 3.37048 2.53779 1.68877
rclavicle -4.77083e-014 -2.70347e-014
rhumerus -397.108 -0.850222 271.223
rradius 31.3027
rwrist 7.30476
rhand -18.8714 738.402
rfingers 7.12502
rthumb 7.42927 708.552
lclavicle -4.77083e-014 -2.70347e-014
lhumerus -559.868 159.249 -477.955
lradius 27.1876
lwrist -18.2231
lhand -16.415 -722
lfingers 7.12502
lthumb 9.7998 27.7519
rfemur -569.773 -160.986 557.352
rtibia 48.4446
rfoot -9.39379 5.42057
rtoes 10.0656
lfemur 1.70901 -0.856655 -22.976
ltibia 40.3228
lfoot -29.584 -3.07816
ltoes -2.58865
19
root -3.40978 16.6427 -7.98143 -1612.36 118.539 198.37
lowerback 24.0146 -2.06248 -7.0607
upperback 7.72684 -4.1772 -5.59931
thorax -4.7206 -1.81017 -0.946265
lowerneck 8.67339 4.2082 -5.7431
upperneck 15.2201 5.47039 2.00781
head 3.24825 2.59561 1.64636
rclavicle 5.92378e-014 8.74653e-015
rhumerus -397.022 -0.582872 271.346
rradius 31.0892
rwrist 8.22063
rhand -18.4947 738.445
rfingers 7.12502
rthumb 7.79286 708.609
lclavicle 5.92378e-014 8.74653e-015
lhumerus -559.469 160.65 -477.58
lradius 27.9495
lwrist -17.0646
lhand -16.4927 -722.189
lfingers 7.12502
lthumb 9.72485 27.5668
rfemur -569.973 -161.364 557.216
rtibia 46.4189
rfoot -10.2693 4.01578
rtoes 11.2932
lfemur 2.82675 -0.621769 -23.2571
ltibia 39.6976
lfoot -30.2678 -2.68415
ltoes -2.68827
20
root -3.28704 16.6088 -7.93429 -1612.59 119.123 198.308
lowerback 24.1883 -2.10069 -7.05577
upperback 7.81523 -4.22835 -5.50485
thorax -4.70136 -1.837 -0.828761
lowerneck 8.75269 4.29723 -5.7132
upperneck 15.0537 5.5877 1.86157
head 3.17582 2.65038 1.58479
rclavicle -2.70347e-014 3.18055e-014
rhumerus -396.962 -0.279126 271.474
rradius 30.9119
rwrist 9.15234
rhand -18.0702 738.486
rfingers 7.12502
rthumb 8.20254 708.666
lclavicle -2.70347e-014 3.18055e-014
lhumerus -559.017 161.739 -477.251
lradius 28.6542
lwrist -16.1876
lhand -16.6147 -722.543
lfingers 7.12502
lthumb 9.60709 27.2183
rfemur -570.154 -161.637 557.103
rtibia 44.3765
rfoot -11.0668 2.5635
rtoes 12.1895
lfemur 3.97313 -0.450445 -23.5688
ltibia 39.0479
lfoot -30.9876 -2.24716
ltoes -2.72775
21
root -3.16368 16.5752 -7.88648 -1612.73 119.711 198.326
lowerback 24.3757 -2.13556 -7.07805
upperback 7.8961 -4.28375 -5.41978
thorax -4.69511 -1.86526 -0.704396
lowerneck 8.63735 4.36214 -5.58755
upperneck 15.0192 5.69861 1.6694
head 3.18768 2.70369 1.50161
rclavicle -4.77083e-015 2.94201e-014
rhumerus -396.866 0.114904 271.564
rradius 30.6567
rwrist 10.0343
rhand -17.6914 738.476
rfingers 7.12502
rthumb 8.56815 708.67
lclavicle -4.77083e-015 2.94201e-014
lhumerus -558.622 162.794 -476.963
lradius 29.4183
lwrist -15.24
lhand -16.8006 -722.971
lfingers 7.12502
lthumb 9.42776 26.7982
rfemur -570.356 -161.87 556.967
rtibia 42.3528
rfoot -11.859 0.891351
rtoes 12.5143
lfemur 5.12134 -0.351882 -23.9674
ltibia 38.3492
lfoot -31.7259 -1.68812
ltoes -2.74005
22
root -3.04005 16.5399 -7.83831 -1612.9 120.286 198.318
lowerback 24.5947 -2.16715 -7.06609
upperback 7.97568 -4.32928 -5.32226
thorax -4.70772 -1.88801 -0.5869
lowerneck 8.39711 4.41 -5.47359
upperneck 15.0661 5.7972 1.47031
head 3.25093 2.74873 1.42472
rclavicle -3.67752e-014 -1.74931e-014
rhumerus -396.724 0.658331 271.616
rradius 30.3494
rwrist 10.7308
rhand -17.3183 738.367
rfingers 7.12502
rthumb 8.92818 708.575
lclavicle -3.67752e-014 -1.74931e-014
lhumerus -558.223 163.86 -476.68
lradius 30.1498
lwrist -14.2842
lhand -17.029 -723.488
lfingers 7.12502
lthumb 9.20735 26.2909
rfemur -570.515 -162.164 556.795
rtibia 40.3567
rfoot -12.7018 -0.941927
rtoes 12.8251
lfemur 6.28523 -0.360772 -24.4058
ltibia 37.6076
lfoot -32.527 -1.03568
ltoes -2.80423
23
root -2.91719 16.5039 -7.78875 -1613 120.862 198.378
lowerback 24.8185 -2.20359 -7.08288
upperback 8.05122 -4.38867 -5.23152
thorax -4.72413 -1.91728 -0.456491
lowerneck 8.13619 4.47197 -5.4469
upperneck 15.089 5.9053 1.31559
head 3.30619 2.79502 1.37746
rclavicle -4.81059e-014 -2.78299e-014
rhumerus -396.531 1.13544 271.699
rradius 29.9582
rwrist 11.4794
rhand -16.9598 738.289
rfingers 7.12502
rthumb 9.27411 708.513
lclavicle -4.81059e-014 -2.78299e-014
lhumerus -557.944 165.004 -476.454
lradius 30.9741
lwrist -13.1682
lhand -17.3777 -723.977
lfingers 7.12502
lthumb 8.87089 25.8162
rfemur -570.619 -162.647 556.468
rtibia 38.4158
rfoot -13.682 -2.7637
rtoes 13.8911
lfemur 7.47441 -0.469614 -24.9332
ltibia 36.8124
lfoot -33.44 -0.310218
ltoes -2.81602
24
root -2.79278 16.4634 -7.73898 -1613.1 121.437 198.441
lowerback 25.0374 -2.23664 -7.06507
upperback 8.14728 -4.43261 -5.15604
thorax -4.71969 -1.93905 -0.366644
lowerneck 7.82446 4.5262 -5.39602
upperneck 15.1361 6.00981 1.14973
head 3.38059 2.83972 1.32504
rclavicle 4.77083e-015 2.70347e-014
rhumerus -396.305 1.56507 271.776
rradius 29.5564
rwrist 12.1
rhand -16.6078 738.122
rfingers 7.12502
rthumb 9.61379 708.362
lclavicle 4.77083e-015 2.70347e-014
lhumerus -557.693 166.153 -476.258
lradius 31.8649
lwrist -11.9748
lhand -17.7993 -724.447
lfingers 7.12502
lthumb 8.46405 25.3629
rfemur -570.733 -163.188 556.111
rtibia 36.5484
rfoot -14.6215 -4.65837
rtoes 14.4502
lfemur 8.71318 -0.62837 -25.513
ltibia 35.9738
lfoot -34.4331 0.4663
ltoes -2.76721
25
root -2.66836 16.4207 -7.68862 -1613.22 122.002 198.472
lowerback 25.2763 -2.26427 -7.02416
upperback 8.21439 -4.46845 -5.05129
thorax -4.75666 -1.95619 -0.258261
lowerneck 7.51743 4.57378 -5.40391
upperneck 15.1955 6.10216 1.00171
head 3.4576 2.87574 1.28894
rclavicle -1.10524e-013 4.21423e-014
rhumerus -396.049 1.7059 272.009
rradius 29.042
rwrist 12.9708
rhand -16.3002 738.077
rfingers 7.12502
rthumb 9.91056 708.331
lclavicle -1.10524e-013 4.21423e-014
lhumerus -557.555 167.325 -476.057
lradius 32.8365
lwrist -10.7478
lhand -18.1844 -724.861
lfingers 7.12502
lthumb 8.09239 24.9637
rfemur -570.869 -163.777 555.774
rtibia 34.7837
rfoot -15.575 -6.5024
rtoes 14.511
lfemur 9.95776 -0.795905 -26.0925
ltibia 35.105
lfoot -35.3997 1.24151
ltoes -2.79932
26
root -2.54271 16.3731 -7.63686 -1613.28 122.577 198.571
lowerback 25.477 -2.28208 -7.02319
upperback 8.3075 -4.49319 -4.94437
thorax -4.74204 -1.96971 -0.130311
lowerneck 7.12977 4.61062 -5.40445
upperneck 15.2813 6.18899 0.833359
head 3.56012 2.90753 1.2485
rclavicle -1.51076e-014 -2.94201e-014
rhumerus -395.696 1.70742 272.303
rradius 28.4574
rwrist 13.8498
rhand -16.0084 737.98
rfingers 7.12502
rthumb 10.1921 708.247
lclavicle -1.51076e-014 -2.94201e-014
lhumerus -557.475 168.422 -475.862
lradius 33.9079
lwrist -9.53262
lhand -18.5503 -725.128
lfingers 7.12502
lthumb 7.73923 24.7104
rfemur -571.021 -164.357 555.424
rtibia 33.1254
rfoot -16.3375 -8.1896
rtoes 14.7527
lfemur 11.2164 -0.974939 -26.7456
ltibia 34.235
lfoot -36.3652 2.06777
ltoes -2.87789
27
root -2.41584 16.3233 -7.58425 -1613.38 123.132 198.617
lowerback 25.6854 -2.31802 -6.94933
upperback 8.38462 -4.52698 -4.84045
thorax -4.75505 -1.98659 -0.0428109
lowerneck 6.72108 4.64369 -5.41372
upperneck 15.4158 6.27286 0.6872
head 3.68393 2.93697 1.21906
rclavicle -1.21855e-013 -1.86858e-014
rhumerus -395.334 1.46546 272.669
rradius 27.8096
rwrist 14.8456
rhand -15.8097 737.945
rfingers 7.12502
rthumb 10.3838 708.221
lclavicle -1.21855e-013 -1.86858e-014
lhumerus -557.451 169.338 -475.684
lradius 34.9717
lwrist -8.51099
lhand -18.8482 -725.318
lfingers 7.12502
lthumb 7.45167 24.5303
rfemur -571.204 -164.93 555.113
rtibia 31.6001
rfoot -16.911 -9.83077
rtoes 14.4923
lfemur 12.4577 -1.14696 -27.3776
ltibia 33.3894
lfoot -37.2553 2.89272
ltoes -2.99131
